<svg width="199" height="58" viewBox="0 0 199 58" fill="none" xmlns="http://www.w3.org/2000/svg">
<g clip-path="url(#clip0)">
<path d="M198.421 30.8008C198.421 27.3529 196.206 24.5181 192.845 24.5181C191.164 24.5181 189.102 26.3569 188.033 27.5062C186.963 26.3569 185.054 24.5181 183.373 24.5181C180.012 24.5181 177.644 27.3529 177.644 30.8008C177.644 32.563 178.332 34.0953 179.401 35.2446L188.033 43.9025L196.664 35.2446C197.734 34.0953 198.421 32.563 198.421 30.8008Z" fill="#076020"/>
<path d="M161.756 58.0001C160.992 57.9235 160.457 57.4638 160.381 56.8508L156.027 31.2603L149.381 43.5959C149.075 44.1322 148.464 44.4387 147.853 44.2854C147.242 44.2088 146.784 43.6725 146.707 43.0595L143.881 23.292L138.763 34.8614C138.534 35.3977 137.999 35.7042 137.465 35.7042H117.451C116.687 35.7042 116 35.0912 116 34.2484C116 33.4823 116.611 32.7927 117.451 32.7927H136.548L143.346 17.5457C143.576 16.9327 144.187 16.6262 144.798 16.7029C145.409 16.7795 145.944 17.3158 146.02 17.9288L148.923 38.3092L155.492 26.1269C155.797 25.5906 156.332 25.2841 156.943 25.4373C157.554 25.514 158.013 25.9737 158.089 26.5866L162.137 50.2616L176.88 1.07274C177.033 0.536415 177.568 0.0767059 178.102 0.0767059C178.713 8.76951e-05 179.248 0.383179 179.477 0.842888L187.269 17.0093C187.574 17.6989 187.345 18.5417 186.581 18.9248C185.894 19.2313 185.053 19.0014 184.671 18.2352L178.484 5.36336L163.054 56.8508C162.901 57.617 162.367 58.0001 161.756 58.0001Z" fill="#076020"/>
</g>
<path d="M13.6385 30.1401V23.062H6.44323V30.1401H2.9862V13.6284H6.44323V20.2026H13.6385V13.6284H17.0956V30.1401H13.6385ZM25.2317 30.3745C23.3254 30.3745 21.8606 29.812 20.8371 28.687C19.8137 27.5542 19.302 25.9058 19.302 23.7417C19.302 21.6479 19.8215 20.0386 20.8606 18.9136C21.8996 17.7886 23.3723 17.2261 25.2785 17.2261C27.0989 17.2261 28.4895 17.8315 29.4504 19.0425C30.4114 20.2456 30.8918 22.0112 30.8918 24.3394V24.4331H22.759C22.759 25.6675 22.9856 26.6011 23.4387 27.2339C23.8996 27.8589 24.552 28.1714 25.3957 28.1714C26.5598 28.1714 27.2942 27.6675 27.5989 26.6597L30.7043 26.9292C29.8059 29.2261 27.9817 30.3745 25.2317 30.3745ZM25.2317 19.3003C24.4582 19.3003 23.8606 19.5698 23.4387 20.1089C23.0246 20.6479 22.8059 21.4019 22.7824 22.3706H27.7043C27.6418 21.3472 27.3957 20.5815 26.966 20.0737C26.5364 19.5581 25.9582 19.3003 25.2317 19.3003ZM35.9693 30.3745C34.7428 30.3745 33.7857 30.0425 33.0982 29.3784C32.4107 28.7065 32.067 27.7651 32.067 26.5542C32.067 25.2417 32.4928 24.2417 33.3443 23.5542C34.2037 22.8667 35.4459 22.5151 37.0709 22.4995L39.8014 22.4526V21.8081C39.8014 20.98 39.6568 20.3667 39.3678 19.9683C39.0787 19.562 38.606 19.3589 37.9498 19.3589C37.3404 19.3589 36.8912 19.4995 36.6021 19.7808C36.3209 20.0542 36.1451 20.5112 36.0748 21.1519L32.6412 20.9878C32.8521 19.7534 33.4146 18.8198 34.3287 18.187C35.2506 17.5464 36.5045 17.2261 38.0904 17.2261C39.692 17.2261 40.9264 17.6206 41.7935 18.4097C42.6607 19.1987 43.0943 20.3198 43.0943 21.7729V26.3901C43.0943 27.1011 43.1724 27.5933 43.3287 27.8667C43.4928 28.1323 43.7623 28.2651 44.1373 28.2651C44.3873 28.2651 44.6295 28.2417 44.8639 28.1948V29.9761C44.6685 30.0229 44.4928 30.0659 44.3365 30.105C44.1803 30.144 44.024 30.1753 43.8678 30.1987C43.7115 30.2222 43.5435 30.2417 43.3639 30.2573C43.192 30.2729 42.9889 30.2808 42.7545 30.2808C41.9264 30.2808 41.3131 30.0776 40.9146 29.6714C40.524 29.2651 40.2896 28.6675 40.2115 27.8784H40.1412C39.2193 29.5425 37.8287 30.3745 35.9693 30.3745ZM39.8014 24.269L38.1139 24.2925C37.3482 24.3237 36.8053 24.4097 36.4849 24.5503C36.1646 24.6831 35.9185 24.8901 35.7467 25.1714C35.5826 25.4526 35.5006 25.8276 35.5006 26.2964C35.5006 26.8979 35.6373 27.3472 35.9107 27.644C36.192 27.9331 36.5631 28.0776 37.024 28.0776C37.5396 28.0776 38.0084 27.937 38.4303 27.6558C38.8599 27.3745 39.1959 26.9878 39.4381 26.4956C39.6803 25.9956 39.8014 25.4683 39.8014 24.9136V24.269ZM46.039 30.1401V12.7495H49.332V30.1401H46.039ZM55.6048 30.3511C54.636 30.3511 53.8899 30.0894 53.3665 29.5659C52.8431 29.0347 52.5814 28.2339 52.5814 27.1636V19.687H50.9759V17.4604H52.7454L53.7767 14.4839H55.8392V17.4604H58.2415V19.687H55.8392V26.2729C55.8392 26.8901 55.9564 27.3472 56.1907 27.644C56.4251 27.9331 56.7884 28.0776 57.2806 28.0776C57.5384 28.0776 57.9056 28.0229 58.3821 27.9136V29.9526C57.5696 30.2183 56.6439 30.3511 55.6048 30.3511ZM63.237 19.9917C63.6823 19.0229 64.2409 18.3198 64.9128 17.8823C65.5846 17.4448 66.3854 17.2261 67.3151 17.2261C68.6589 17.2261 69.6901 17.6401 70.4089 18.4683C71.1276 19.2964 71.487 20.5073 71.487 22.1011V30.1401H68.2057V23.0386C68.2057 20.812 67.4518 19.6987 65.944 19.6987C65.1471 19.6987 64.5026 20.0425 64.0104 20.73C63.526 21.4097 63.2839 22.2847 63.2839 23.355V30.1401H59.9909V12.7495H63.2839V17.4956C63.2839 18.3472 63.2526 19.1792 63.1901 19.9917H63.237ZM81.6856 16.3003V30.1401H78.2285V16.3003H72.8965V13.6284H87.0293V16.3003H81.6856ZM87.2787 30.1401V20.437C87.2787 19.7417 87.267 19.1636 87.2435 18.7026C87.2279 18.2339 87.2084 17.8198 87.185 17.4604H90.3256C90.349 17.6011 90.3803 18.0308 90.4193 18.7495C90.4584 19.4604 90.4779 19.9331 90.4779 20.1675H90.5248C90.8451 19.2769 91.1303 18.6519 91.3803 18.2925C91.6303 17.9253 91.9271 17.6558 92.2709 17.4839C92.6146 17.3042 93.0443 17.2144 93.56 17.2144C93.9818 17.2144 94.3217 17.2729 94.5795 17.3901V20.144C94.0482 20.0269 93.5795 19.9683 93.1732 19.9683C92.3529 19.9683 91.7123 20.3003 91.2514 20.9644C90.7982 21.6284 90.5717 22.6128 90.5717 23.9175V30.1401H87.2787ZM99.2 30.3745C97.9734 30.3745 97.0164 30.0425 96.3289 29.3784C95.6414 28.7065 95.2976 27.7651 95.2976 26.5542C95.2976 25.2417 95.7234 24.2417 96.575 23.5542C97.4343 22.8667 98.6765 22.5151 100.302 22.4995L103.032 22.4526V21.8081C103.032 20.98 102.887 20.3667 102.598 19.9683C102.309 19.562 101.837 19.3589 101.18 19.3589C100.571 19.3589 100.122 19.4995 99.8328 19.7808C99.5515 20.0542 99.3757 20.5112 99.3054 21.1519L95.8718 20.9878C96.0828 19.7534 96.6453 18.8198 97.5593 18.187C98.4812 17.5464 99.7351 17.2261 101.321 17.2261C102.923 17.2261 104.157 17.6206 105.024 18.4097C105.891 19.1987 106.325 20.3198 106.325 21.7729V26.3901C106.325 27.1011 106.403 27.5933 106.559 27.8667C106.723 28.1323 106.993 28.2651 107.368 28.2651C107.618 28.2651 107.86 28.2417 108.094 28.1948V29.9761C107.899 30.0229 107.723 30.0659 107.567 30.105C107.411 30.144 107.255 30.1753 107.098 30.1987C106.942 30.2222 106.774 30.2417 106.594 30.2573C106.423 30.2729 106.219 30.2808 105.985 30.2808C105.157 30.2808 104.544 30.0776 104.145 29.6714C103.755 29.2651 103.52 28.6675 103.442 27.8784H103.372C102.45 29.5425 101.059 30.3745 99.2 30.3745ZM103.032 24.269L101.344 24.2925C100.579 24.3237 100.036 24.4097 99.7156 24.5503C99.3953 24.6831 99.1492 24.8901 98.9773 25.1714C98.8132 25.4526 98.7312 25.8276 98.7312 26.2964C98.7312 26.8979 98.8679 27.3472 99.1414 27.644C99.4226 27.9331 99.7937 28.0776 100.255 28.0776C100.77 28.0776 101.239 27.937 101.661 27.6558C102.091 27.3745 102.427 26.9878 102.669 26.4956C102.911 25.9956 103.032 25.4683 103.032 24.9136V24.269ZM114.555 30.3745C112.633 30.3745 111.149 29.8042 110.102 28.6636C109.055 27.5151 108.531 25.9175 108.531 23.8706C108.531 21.7769 109.059 20.1479 110.113 18.9839C111.168 17.812 112.664 17.2261 114.602 17.2261C116.094 17.2261 117.328 17.6011 118.305 18.3511C119.281 19.1011 119.895 20.1362 120.145 21.4565L116.828 21.6206C116.734 20.9722 116.5 20.4565 116.125 20.0737C115.75 19.6831 115.219 19.4878 114.531 19.4878C112.836 19.4878 111.988 20.9058 111.988 23.7417C111.988 26.6636 112.852 28.1245 114.578 28.1245C115.203 28.1245 115.727 27.9292 116.149 27.5386C116.57 27.1401 116.832 26.5503 116.934 25.769L120.238 25.9214C120.121 26.7886 119.809 27.562 119.301 28.2417C118.801 28.9214 118.141 29.4487 117.32 29.8237C116.5 30.1909 115.578 30.3745 114.555 30.3745ZM130.367 30.1401L126.98 24.3979L125.562 25.3823V30.1401H122.269V12.7495H125.562V22.7104L130.085 17.4604H133.624L129.171 22.4058L133.964 30.1401H130.367Z" fill="#076020"/>
<defs>
<clipPath id="clip0">
<rect width="82.4211" height="58" fill="white" transform="translate(116)"/>
</clipPath>
</defs>
</svg>
